<svg xmlns="http://www.w3.org/2000/svg" width="159.215" height="132.607" viewBox="0 0 159.215 132.607"><defs><style>.a{fill:#ee6c4d;}.b{fill:#fff;}</style></defs><path class="a" d="M172.9,104.192l-25.652-68.23v-.033h0a23.218,23.218,0,0,0-43.467,0A22.985,22.985,0,0,0,102.3,44.1V73.93H89.029V44.1A23.217,23.217,0,0,0,44.08,35.929v.033l-25.652,68.2h0A36.485,36.485,0,1,0,89.062,117v-3.326h13.271V117a36.486,36.486,0,1,0,70.634-12.843h0ZM52.543,140.25a23.231,23.231,0,0,1-23.215-23.215,22.985,22.985,0,0,1,1.482-8.167A23.216,23.216,0,1,1,52.543,140.25Zm86.21,0a23.215,23.215,0,1,1,21.734-31.382,22.985,22.985,0,0,1,1.482,8.167A23.231,23.231,0,0,1,138.753,140.25Z" transform="translate(-16.09 -20.88)"/><circle class="b" cx="23.874" cy="23.874" r="23.874" transform="translate(98.459 72.61)"/><circle class="b" cx="23.874" cy="23.874" r="23.874" transform="translate(12.908 71.918)"/></svg>