<svg xmlns="http://www.w3.org/2000/svg" width="186.12" height="185.491" viewBox="0 0 186.12 185.491"><defs><style>.a{fill:#ee6c4d;}.b{fill:#fff;}.c{opacity:0.11;}.d{fill:#5b6375;}.e{fill:#2f363e;}</style></defs><path class="a" d="M101.608,193.741H99.19v-1.226c1.656.033,3.312.033,4.935,0v1.226c-.795,0-1.656.033-2.517.033Zm-7.387-.3c-1.656-.133-3.312-.3-4.935-.53l.166-1.226c1.623.232,3.246.4,4.869.53Zm14.906,0-.1-1.226c1.623-.133,3.279-.3,4.869-.53l.166,1.226C112.439,193.145,110.783,193.311,109.127,193.443Zm-24.743-1.325q-2.435-.447-4.869-1.093l.3-1.192c1.59.4,3.18.762,4.8,1.06Zm34.581,0-.232-1.226c1.59-.3,3.213-.662,4.77-1.06l.3,1.192C122.211,191.423,120.555,191.787,118.965,192.118ZM74.745,189.7c-1.59-.5-3.18-1.027-4.7-1.623l.431-1.159c1.524.563,3.08,1.093,4.637,1.59l-.364,1.192Zm53.859,0-.364-1.159c1.557-.5,3.114-1.027,4.637-1.59l.431,1.159c-1.557.563-3.114,1.126-4.7,1.623Zm-63.2-3.445c-1.524-.662-3.014-1.391-4.5-2.12l.563-1.093c1.457.729,2.948,1.457,4.439,2.087l-.5,1.126Zm72.507,0-.5-1.126c1.491-.662,2.981-1.358,4.439-2.087l.563,1.093c-1.457.762-2.981,1.457-4.472,2.12Zm-81.384-4.472c-1.424-.828-2.849-1.689-4.24-2.617l.662-1.027c1.358.894,2.782,1.756,4.174,2.584l-.629,1.06Zm90.228,0-.629-1.06c1.391-.828,2.815-1.689,4.174-2.584l.662,1.027c-1.391.894-2.815,1.789-4.24,2.617Zm-98.542-5.432c-1.325-.994-2.65-2.021-3.909-3.047l.795-.961c1.259,1.027,2.551,2.054,3.875,3.014l-.729.994Zm106.856,0-.729-.994c1.325-.961,2.617-1.987,3.875-3.014l.795.961c-1.259,1.06-2.584,2.087-3.909,3.047ZM40.529,170.058q-1.838-1.689-3.577-3.478l.894-.861c1.126,1.159,2.319,2.319,3.511,3.412l-.828.894Zm122.192,0-.828-.894c1.192-1.093,2.385-2.252,3.511-3.412l.894.861q-1.739,1.789-3.577,3.478ZM33.573,162.97c-1.093-1.259-2.153-2.517-3.18-3.842l.961-.762c.994,1.292,2.054,2.55,3.114,3.776l-.927.795Zm136.071,0-.927-.795c1.06-1.226,2.12-2.517,3.114-3.776l.961.762c-1.027,1.292-2.087,2.584-3.18,3.842Zm-142.2-7.817c-.927-1.358-1.855-2.749-2.716-4.14l1.06-.662c.861,1.391,1.756,2.749,2.683,4.107Zm148.293,0-1.027-.7c.927-1.325,1.822-2.716,2.683-4.107l1.06.662c-.861,1.391-1.789,2.815-2.716,4.174ZM22.244,146.739c-.795-1.457-1.557-2.948-2.252-4.439l1.126-.53c.7,1.457,1.457,2.948,2.219,4.372Zm158.727-.066-1.093-.6c.762-1.424,1.524-2.915,2.219-4.372l1.126.53c-.7,1.491-1.457,2.981-2.252,4.439ZM18,137.763c-.629-1.524-1.226-3.08-1.756-4.67l1.159-.4c.53,1.524,1.126,3.08,1.722,4.6Zm167.24-.066-1.126-.464c.629-1.524,1.192-3.047,1.722-4.6l1.159.4C186.47,134.583,185.874,136.173,185.245,137.7ZM14.792,128.389c-.464-1.59-.861-3.213-1.226-4.8l1.192-.265q.547,2.385,1.192,4.77l-1.192.331Zm173.7-.1-1.192-.331c.431-1.557.861-3.18,1.192-4.77l1.192.265c-.364,1.623-.762,3.246-1.226,4.836ZM12.606,118.684c-.265-1.623-.5-3.279-.7-4.935l1.226-.133c.166,1.623.4,3.246.662,4.869l-1.226.2Zm178.038-.1-1.226-.2c.265-1.59.5-3.246.662-4.869l1.226.132C191.141,115.305,190.909,116.961,190.644,118.584ZM11.512,108.813c-.1-1.656-.132-3.312-.132-4.969h1.226c0,1.623.033,3.279.132,4.9Zm180.224-.1-1.226-.066c.1-1.623.133-3.279.133-4.9v-.2h1.226v.2C191.869,105.4,191.836,107.057,191.737,108.713Zm-179-9.771-1.226-.066q.149-2.484.4-4.969l1.226.132C12.97,95.663,12.837,97.286,12.738,98.942Zm177.74-.3c-.1-1.623-.232-3.279-.4-4.9l1.226-.132c.2,1.623.331,3.312.431,4.969l-1.226.066ZM13.8,89.171l-1.226-.2c.265-1.623.6-3.279.927-4.869l1.192.265c-.364,1.59-.662,3.213-.927,4.8Zm175.62-.3c-.265-1.59-.6-3.213-.961-4.8l1.192-.265c.364,1.623.7,3.246.961,4.869l-1.226.2ZM15.951,79.6l-1.192-.331c.431-1.59.927-3.18,1.491-4.737l1.159.4c-.53,1.557-1.027,3.114-1.457,4.67Zm171.314-.265c-.431-1.557-.927-3.147-1.457-4.67l1.159-.4c.53,1.557,1.027,3.147,1.491,4.737l-1.192.331ZM19.131,70.323,18,69.86c.629-1.524,1.292-3.08,1.987-4.571l1.126.53c-.7,1.491-1.358,2.981-1.954,4.5Zm164.954-.265c-.629-1.491-1.292-3.014-1.987-4.472l1.126-.53c.7,1.491,1.391,3.014,2.021,4.538l-1.126.464ZM23.338,61.446l-1.093-.6c.795-1.457,1.623-2.915,2.484-4.306l1.06.629c-.861,1.391-1.689,2.815-2.451,4.24Zm156.574-.232c-.762-1.424-1.59-2.849-2.451-4.24l1.06-.662c.861,1.391,1.722,2.849,2.484,4.306l-1.093.6ZM28.472,53.066l-1.027-.7c.927-1.358,1.921-2.716,2.948-4.008l.961.762c-.994,1.292-1.987,2.617-2.915,3.942Zm146.273-.2c-.927-1.325-1.921-2.65-2.915-3.942l.961-.762c1.027,1.292,2.021,2.65,2.948,4.008l-1.027.7ZM34.5,45.315l-.927-.795q1.64-1.888,3.379-3.677l.894.861c-1.126,1.159-2.252,2.385-3.312,3.61Zm134.216-.166c-1.06-1.226-2.186-2.451-3.312-3.61l.894-.861c1.159,1.192,2.286,2.418,3.379,3.644l-.927.795ZM41.324,38.293,40.5,37.4c1.226-1.126,2.484-2.219,3.743-3.279l.795.961c-1.259,1.027-2.484,2.12-3.677,3.213Zm120.536-.132c-1.192-1.093-2.451-2.186-3.71-3.213l.795-.961c1.292,1.06,2.551,2.153,3.743,3.246l-.828.894ZM48.876,32.066l-.729-.994c1.325-.994,2.716-1.921,4.074-2.849l.662,1.027C51.525,30.145,50.167,31.072,48.876,32.066Zm105.4-.132c-1.325-.961-2.683-1.888-4.041-2.782l.662-1.027c1.391.894,2.749,1.855,4.074,2.849l-.729.994ZM57.057,26.7l-.629-1.06Q58.564,24.4,60.8,23.255l.563,1.093C59.906,25.077,58.481,25.872,57.057,26.7Zm89-.132c-1.424-.828-2.882-1.59-4.306-2.319l.563-1.093c1.457.729,2.948,1.557,4.372,2.352l-.629,1.06ZM65.8,22.261l-.5-1.126c1.491-.662,3.047-1.292,4.6-1.888l.431,1.159c-1.524.563-3.047,1.192-4.538,1.855Zm71.513-.1c-1.491-.662-3.014-1.259-4.538-1.855l.431-1.159c1.557.563,3.114,1.192,4.6,1.855l-.5,1.126ZM74.977,18.817l-.364-1.159c1.59-.5,3.18-.961,4.77-1.358l.3,1.192c-1.59.4-3.18.861-4.7,1.325Zm53.13-.1c-1.557-.5-3.147-.927-4.737-1.325l.3-1.192c1.59.4,3.213.861,4.8,1.358l-.364,1.192ZM84.483,16.4l-.232-1.226c1.623-.331,3.279-.6,4.9-.828l.166,1.226c-1.623.232-3.246.5-4.836.795Zm34.117-.066c-1.59-.3-3.213-.563-4.836-.795l.166-1.226c1.623.232,3.279.5,4.9.795ZM94.188,15.041l-.1-1.226c1.656-.132,3.312-.232,4.969-.265v1.226C97.468,14.809,95.811,14.908,94.188,15.041Zm14.707,0c-1.623-.132-3.279-.232-4.9-.265V13.55c1.689.033,3.345.132,5,.265Z" transform="translate(-11.38 -8.283)"/><path class="a" d="M165.54,92.966v.961q0,1.441-.1,2.882a74.717,74.717,0,0,1-48.062,66.015,9.188,9.188,0,0,0-.861.331l-2.584.894c-.3.1-.6.2-.861.265-1.756.53-3.544,1.027-5.333,1.457-.6.133-1.192.265-1.822.4-1.524.3-3.047.563-4.6.795-.3.033-.629.1-.927.133-.629.066-1.259.166-1.888.2a8.811,8.811,0,0,0-.927.1c-.629.066-1.259.1-1.888.132-1.59.1-3.18.166-4.8.166s-3.213-.066-4.8-.166c-.629-.033-1.259-.1-1.888-.132a8.815,8.815,0,0,1-.927-.1l-1.888-.2a8.928,8.928,0,0,1-.927-.133c-1.557-.232-3.08-.5-4.6-.795-.6-.132-1.226-.265-1.822-.4-1.822-.431-3.577-.894-5.333-1.457-.3-.1-.6-.2-.861-.265l-2.584-.894a9.188,9.188,0,0,1-.861-.331A74.717,74.717,0,0,1,16.319,96.809l-.1-2.385V92.966c0-.894,0-1.756.033-2.65a6.924,6.924,0,0,1,.033-.828v-.364a18.081,18.081,0,0,1,.132-1.888c0-.331.066-.629.066-.961l.2-1.888c.066-.629.166-1.259.232-1.855.132-.927.265-1.855.431-2.782a74.637,74.637,0,0,1,8.082-22.822l.4-.7a74.568,74.568,0,0,1,5.068-7.784,4.846,4.846,0,0,0,.3-.431,70.87,70.87,0,0,1,5.6-6.592l.033-.033a73.71,73.71,0,0,1,8.645-7.751c1.424-1.093,2.882-2.12,4.405-3.114,1.491-.994,3.047-1.921,4.6-2.815.53-.3,1.06-.6,1.59-.861.53-.3,1.06-.563,1.623-.828.364-.166.729-.364,1.093-.53.662-.3,1.292-.6,1.954-.894.166-.066.331-.166.5-.232.464-.2.961-.4,1.424-.6.563-.232,1.126-.464,1.689-.662a9.184,9.184,0,0,0,.861-.331l1.093-.4c.5-.166.994-.331,1.524-.5.3-.1.6-.2.861-.265.6-.166,1.159-.364,1.756-.53,1.491-.431,2.981-.795,4.472-1.126.6-.132,1.226-.265,1.822-.364.6-.132,1.226-.232,1.855-.331q1.391-.248,2.782-.4c.629-.066,1.259-.166,1.888-.232a8.812,8.812,0,0,0,.927-.1c.629-.066,1.259-.1,1.888-.132,1.59-.1,3.18-.166,4.8-.166s3.213.066,4.8.166c.629.033,1.259.1,1.888.132a7.955,7.955,0,0,1,.927.1c.629.066,1.259.132,1.888.232l2.782.4c.629.1,1.226.2,1.855.331.6.132,1.226.232,1.822.364,1.524.331,3.014.7,4.472,1.126.6.166,1.192.331,1.756.53.3.1.6.2.861.265.5.166,1.027.331,1.524.5l1.093.4a9.184,9.184,0,0,1,.861.331c.563.232,1.126.431,1.689.662.464.2.961.4,1.424.6a3.343,3.343,0,0,1,.5.232c.662.3,1.292.6,1.954.894.364.166.729.331,1.093.53.53.265,1.093.53,1.623.828.53.265,1.06.563,1.59.861,1.59.894,3.114,1.822,4.6,2.815s2.981,2.021,4.405,3.114a76.8,76.8,0,0,1,8.645,7.751l.033.033a81.685,81.685,0,0,1,5.6,6.592,4.846,4.846,0,0,1,.3.431,71.241,71.241,0,0,1,5.068,7.784l.4.7a73.774,73.774,0,0,1,8.082,22.822c.166.927.3,1.855.431,2.782.1.629.166,1.259.232,1.855l.2,1.888c0,.331.066.629.066.961.033.629.1,1.259.132,1.888.066,1.259.1,2.55.1,3.842Z" transform="translate(-0.188 2.561)"/><circle class="b" cx="62.139" cy="62.139" r="62.139" transform="translate(28.519 33.388)"/><circle class="a" cx="49.221" cy="49.221" r="49.221" transform="translate(41.437 46.306)"/><circle class="b" cx="37.33" cy="37.33" r="37.33" transform="translate(53.329 58.198)"/><circle class="a" cx="26.035" cy="26.035" r="26.035" transform="translate(64.624 69.692)"/><circle class="b" cx="12.488" cy="12.488" r="12.488" transform="translate(78.171 82.411)"/><path class="c" d="M69.9,51.681A26.01,26.01,0,0,1,55.132,71.886L36.45,57.412h0a12.489,12.489,0,0,0,15.3-19.742h0L69.838,51.714Z" transform="translate(46.59 47.49)"/><path class="c" d="M103.715,60.66a49.2,49.2,0,0,1-46.737,49.155L31.97,90.4A37.333,37.333,0,0,0,78.74,32.24l24.048,18.682a49.791,49.791,0,0,1,.961,9.738Z" transform="translate(36.231 34.934)"/><path class="c" d="M140.983,75.786v.961q0,1.441-.1,2.882a74.717,74.717,0,0,1-48.062,66.015,9.188,9.188,0,0,0-.861.331l-2.584.894c-.3.1-.6.2-.861.265-1.756.53-3.544,1.027-5.333,1.457-.6.133-1.192.265-1.822.4-1.524.3-3.047.563-4.6.795-.3.033-.629.1-.927.133-.629.066-1.259.166-1.888.2a8.811,8.811,0,0,0-.927.1c-.629.066-1.259.1-1.888.132-1.59.1-3.18.166-4.8.166s-3.213-.066-4.8-.166a5.369,5.369,0,0,1-.729-.033L26.84,123.947l.066-.1A62.147,62.147,0,1,0,103.057,25.67h.033l34.051,26.366a75.045,75.045,0,0,1,2.683,10.5c.166.927.3,1.855.431,2.782.1.629.166,1.259.232,1.855l.2,1.888c0,.331.066.629.066.961.033.629.1,1.259.132,1.888.066,1.259.1,2.55.1,3.842Z" transform="translate(24.369 19.742)"/><path class="d" d="M120.7,11.96V26.369l14.276-.1L113.053,48.2l-11.129-.265L41.9,107.952a1.939,1.939,0,0,1-2.749,0l-.166-.166a1.939,1.939,0,0,1,0-2.749L99.042,44.984l-.364-11.03L120.671,11.96Z" transform="translate(51.14 -11.96)"/><path class="e" d="M120.236,16.4l14.276-.1L112.585,38.231l-11.129-.265-60.02,60.02a1.939,1.939,0,0,1-2.749,0l-.066-.066L120.269,16.27V16.4Z" transform="translate(51.608 -1.994)"/></svg>