<svg xmlns="http://www.w3.org/2000/svg" width="276.5" height="113.087" viewBox="0 0 276.5 113.087">
  <g id="Layer_4" transform="translate(0 0.001)">
    <path id="Path_2169" data-name="Path 2169" d="M30.62,91.463a7.669,7.669,0,0,1-.461,2.6H15.811a7.384,7.384,0,0,1-.461-2.6,7.6,7.6,0,0,1,.534-2.793h14.2A7.474,7.474,0,0,1,30.62,91.463Z" transform="translate(-6.03 -34.833)" fill="#333" opacity="0.22"/>
    <path id="Path_2170" data-name="Path 2170" d="M30.425,85.529H16.23a7.629,7.629,0,0,1,14.2,0Z" transform="translate(-6.376 -31.699)" fill="#333" opacity="0.22"/>
    <path id="Path_2171" data-name="Path 2171" d="M16.11,97.56H30.445c-.079.231-.17.443-.267.662a7.621,7.621,0,0,1-13.412.7,7.97,7.97,0,0,1-.656-1.354Z" transform="translate(-6.329 -38.326)" fill="#333" opacity="0.22"/>
    <path id="Path_2172" data-name="Path 2172" d="M15.516,110.916c1.846,20.637.789,31.42-.759,37.559-.364,1.445-1.378,5.094.759,7.389,1.3,1.4,3.783.467,12.793,0,1.536-.079,2.787-.128,3.576-.152-2.265.079-3.06-9.994-3.1-11.239q-.237-7.213-.583-14.384a185.129,185.129,0,0,1,.109-19.32,12.568,12.568,0,0,1-3.382,1.354,13.356,13.356,0,0,1-3.145.376,13.037,13.037,0,0,1-6.266-1.585Z" transform="translate(-5.577 -43.515)" fill="#0d61d3"/>
    <path id="Path_2173" data-name="Path 2173" d="M78.56,103.083c.352,2.617.492,5.7-1.378,7.826a7.361,7.361,0,0,1-4.985,2.137,12.3,12.3,0,0,1-9.97-4.39c-2.574-2.933-2.629-6.752-3.194-10.413A33.418,33.418,0,0,0,52.58,82.373c-5-6.339-13.272-6.314-20.285-8.713a15.35,15.35,0,0,1-2.55-.941q.091-2.55.1-5.234c0-2.331-.036-4.59-.121-6.77a27.578,27.578,0,0,0,12.4,5.981,30.6,30.6,0,0,0,5.209.474A29.221,29.221,0,0,0,76.326,40.795c.091-.911.146-1.828.146-2.763A28.982,28.982,0,0,0,73.8,25.853V25.84A29.312,29.312,0,0,0,65.185,15L65.172,15A28.976,28.976,0,0,0,49.4,8.955c-.68-.049-1.366-.079-2.058-.079A29.205,29.205,0,0,0,19.806,28.463H33.333L16.673,45.652,0,28.463H11.84A37.273,37.273,0,0,1,35.871,1.876a38.05,38.05,0,0,1,23.892.1A37.592,37.592,0,0,1,71.857,8.579c.425.346.838.71,1.245,1.075h.006a38.4,38.4,0,0,1,8.4,11,.021.021,0,0,0,.006.012A40.393,40.393,0,0,1,85.682,34.5C86.8,44.474,84.11,54.759,76.86,62.482A31.871,31.871,0,0,1,72.307,66.5c-2.514,1.828-4.894,3.916-6.138,6.521a9.152,9.152,0,0,0-.638,6.211,28.637,28.637,0,0,0,3.831,8.931c1.694,2.6,4.183,4.548,6.023,7.037a17.182,17.182,0,0,1,2.629,5.3,16.956,16.956,0,0,1,.546,2.58Z" fill="#fff"/>
    <path id="Path_2174" data-name="Path 2174" d="M17.02,88.98v.006H30.2V88.98Z" transform="translate(-6.686 -34.955)" fill="#fff"/>
    <path id="Path_2175" data-name="Path 2175" d="M23.614,81.58a7.1,7.1,0,0,0-6.594,4.493H30.2A7.088,7.088,0,0,0,23.614,81.58Z" transform="translate(-6.686 -32.048)" fill="#f9994b"/>
    <path id="Path_2176" data-name="Path 2176" d="M16.2,91.583a6.9,6.9,0,0,0,.431,2.41H29.946a6.933,6.933,0,0,0-.061-5H16.7A7.062,7.062,0,0,0,16.2,91.583Z" transform="translate(-6.364 -34.959)" fill="#fff"/>
    <path id="Path_2177" data-name="Path 2177" d="M17.517,98.5a7.076,7.076,0,0,0,12.453-.644c.091-.2.176-.407.255-.613H16.91A7.06,7.06,0,0,0,17.517,98.5Z" transform="translate(-6.643 -38.2)" fill="#218c15"/>
    <path id="Path_2178" data-name="Path 2178" d="M30.219,97.236V97.23H16.91v.006Z" transform="translate(-6.643 -38.196)" fill="#218c15"/>
    <path id="Path_2179" data-name="Path 2179" d="M305.168,17.088a235.935,235.935,0,0,0-12.089,21.244,47.881,47.881,0,0,0-4.262,10.82,17.077,17.077,0,0,0,.935,11.1c.971,2.064,2.417,4.444.656,6.236a7,7,0,0,1-4.007,1.615c-9.235,1.16-12.477-5.61-10.565-10.552.808-2.1,2.01-4.147,2.277-6.308.577-4.633-2.593-9.065-4.669-13.345-2.2-4.523-4.384-9.1-8.051-13.181-1.554-1.73-3.4-3.364-4.444-5.27-.279-.516-.443-1.184.17-1.536a3.05,3.05,0,0,1,1.779-.128,44.977,44.977,0,0,0,12.35-.249,204.892,204.892,0,0,1,7.195,23.26c2.574-3.734,5.076-7.541,6.3-11.585s1.075-8.4-1.5-12.143l17.929.012Z" transform="translate(-102.413 -5.51)" fill="#fff"/>
    <path id="Path_2180" data-name="Path 2180" d="M228.832,17.442c1.967,22.975.838,34.978-.808,41.8-.389,1.609-1.463,5.671.808,8.227,1.384,1.554,4.025.522,13.625,0,1.633-.091,2.969-.14,3.807-.17-2.416.085-3.26-11.123-3.3-12.507q-.246-8.024-.619-16c-.237-5.2-.37-12.483.115-21.5-.838.51-11.676,1.275-13.625.158Z" transform="translate(-89.343 -5.596)" fill="#fff"/>
    <path id="Path_2181" data-name="Path 2181" d="M382.687,22.429a21.262,21.262,0,0,0-3.734-3.182c-4.505-3.024-10.285-4.408-16.011-4.748a98.239,98.239,0,0,0-17.146.965,7.262,7.262,0,0,0-3.011.8c-1.305.82-1.682,2.313-1.931,3.673a89.635,89.635,0,0,0-1.075,24.7c.607,6.369,1.518,13.9,7.668,18.312,3.3,2.368,7.662,3.37,11.943,3.849,6.545.729,13.606.279,19.083-2.854a20.289,20.289,0,0,0,8.342-9.338,30.707,30.707,0,0,0,2.423-11.676,32.867,32.867,0,0,0-1.864-12.932,23.254,23.254,0,0,0-4.681-7.559Zm-2.866,21.117q0,6.521-4.074,10.364t-11.779,3.843q-7.7,0-11.724-3.843t-4.019-10.364V37.826q0-6.521,4.019-10.364t11.724-3.843q7.7,0,11.779,3.843t4.074,10.364Z" transform="translate(-133.321 -4.463)" fill="#fff"/>
    <g id="Group_273" data-name="Group 273" transform="translate(93.788 70.436)">
      <path id="Path_2182" data-name="Path 2182" d="M159.637,114.675c.565-.018,1.172-.03,1.828-.036s1.421,0,2.3.036a7.734,7.734,0,0,1,2.076.358,4.334,4.334,0,0,1,1.67.984,4.454,4.454,0,0,1,1.105,1.743,7.638,7.638,0,0,1,.4,2.611,5.841,5.841,0,0,1-.534,2.55,4.609,4.609,0,0,1-1.384,1.658c.334,1.148.686,2.3,1.069,3.461s.82,2.35,1.318,3.558l-4.657,1.172a32.323,32.323,0,0,0-.534-3.582c-.243-1.148-.5-2.265-.783-3.364-.716.115-1.427.2-2.143.261s-1.427.085-2.143.085c-.018,1.026-.012,2.04.012,3.036s.055,2.016.085,3.06l-4.851.024c.134-1.014.255-1.961.358-2.848s.2-1.761.285-2.617.146-1.718.188-2.586.061-1.791.061-2.763-.03-2.01-.1-3.127-.158-2.338-.273-3.685h4.633Zm-.1,3.91c-.1,1.463-.176,2.835-.225,4.135a11.526,11.526,0,0,0,1.542.049,10.987,10.987,0,0,0,1.718-.2,2.614,2.614,0,0,0,1.518-.71,2.247,2.247,0,0,0,.4-1.6,2.754,2.754,0,0,0-.188-.971,1.37,1.37,0,0,0-.449-.583,1.74,1.74,0,0,0-.7-.3,5.141,5.141,0,0,0-.935-.109,7.75,7.75,0,0,0-1.409.036,8.683,8.683,0,0,0-1.281.261Z" transform="translate(-154.47 -114.274)" fill="#0d61d3"/>
      <path id="Path_2183" data-name="Path 2183" d="M187.974,128.7c.3-.018.741-.061,1.318-.127a18.263,18.263,0,0,0,1.828-.31c.638-.14,1.263-.31,1.87-.5a5.35,5.35,0,0,0,1.481-.686c-.1.334-.194.668-.285,1.008s-.188.7-.3,1.081-.237.789-.389,1.22-.322.9-.522,1.421a30.185,30.185,0,0,1-3.9.31,29.323,29.323,0,0,1-3.819-.164,6.31,6.31,0,0,1-1.718-.413,2.568,2.568,0,0,1-1.056-.783,3.2,3.2,0,0,1-.559-1.233,11.288,11.288,0,0,1-.249-1.779c-.085-1.044-.128-2.058-.128-3.036s.03-1.985.085-3.024.146-2.131.261-3.285.267-2.417.449-3.795a21.4,21.4,0,0,0,2.574.176c1.038.018,2.119.006,3.248-.024s2.24-.1,3.333-.213,2.058-.237,2.89-.389a9.52,9.52,0,0,0-.176,1.056c-.049.425-.1.856-.14,1.305s-.073.874-.1,1.281-.049.735-.061.984a11.5,11.5,0,0,0-1.342-.176c-.577-.049-1.214-.085-1.894-.109s-1.36-.03-2.028-.024-1.257.03-1.755.061c-.1.534-.188,1.032-.261,1.506s-.14.923-.188,1.354c.729.036,1.481.049,2.253.049s1.512-.018,2.216-.049,1.348-.085,1.931-.164a11.012,11.012,0,0,0,1.4-.261c-.018.267-.036.589-.061.971s-.055.777-.085,1.184-.073.808-.109,1.2-.085.729-.134,1.008c-.364-.049-.832-.1-1.409-.14s-1.2-.079-1.894-.109-1.4-.061-2.143-.073-1.463-.018-2.18,0c0,.6.024,1.245.073,1.943a2.364,2.364,0,0,0,.376,1.445,1.656,1.656,0,0,0,1.293.3Z" transform="translate(-165.108 -114.087)" fill="#0d61d3"/>
      <path id="Path_2184" data-name="Path 2184" d="M220.861,114.676c-.3,1.724-.534,3.333-.7,4.815s-.273,2.927-.322,4.329-.061,2.793-.024,4.171.091,2.823.176,4.329l-4.954.1q-1.147-2.714-2.313-5.24t-2.417-4.942q-.128,2.641-.109,5.064t.109,4.967l-4.979.024c.134-1.014.255-1.961.358-2.848s.2-1.761.285-2.617.146-1.718.188-2.587.061-1.791.061-2.763-.03-2.01-.1-3.127-.158-2.338-.273-3.685h4.954l.049-.024c.164.449.413,1.063.735,1.84s.7,1.645,1.123,2.587.886,1.931,1.384,2.963,1,2.016,1.494,2.963c.018-.747.018-1.5.012-2.265s-.024-1.56-.036-2.392-.036-1.712-.061-2.653-.049-1.943-.061-3.024h5.428Z" transform="translate(-174.45 -114.276)" fill="#0d61d3"/>
      <path id="Path_2185" data-name="Path 2185" d="M232.18,114.04a7.887,7.887,0,0,0,1.815.389c.783.091,1.639.152,2.574.188s1.925.049,2.963.049,2.034-.018,2.987-.049,1.828-.073,2.611-.109,1.421-.085,1.906-.14c-.067.267-.128.583-.188.947s-.128.747-.2,1.148-.152.783-.237,1.16a10.056,10.056,0,0,1-.273.984c-.516-.067-1.129-.115-1.84-.152s-1.488-.067-2.313-.1q-.273,1.913-.4,3.582t-.164,3.3c-.024,1.087-.018,2.186.024,3.3s.1,2.3.164,3.558l-5.325.1q.246-2.04.376-3.7c.085-1.105.14-2.18.164-3.236s.03-2.131.012-3.224-.042-2.331-.073-3.71c-.862.03-1.67.073-2.429.109s-1.409.1-1.955.164c0-.249,0-.571-.012-.971s-.018-.814-.036-1.245-.036-.856-.061-1.269-.055-.771-.085-1.069Z" transform="translate(-184.998 -114.04)" fill="#0d61d3"/>
      <path id="Path_2186" data-name="Path 2186" d="M269.486,127.638a9.479,9.479,0,0,0,2.24.522c.085-.777.152-1.536.212-2.265s.1-1.481.109-2.253.012-1.585-.012-2.441-.073-1.8-.14-2.823c-.7.049-1.433.121-2.216.225,0-.249,0-.571-.012-.971s-.018-.814-.036-1.245-.036-.856-.061-1.269-.055-.771-.085-1.069a8.881,8.881,0,0,0,2.18.5,22.79,22.79,0,0,0,2.441.128c.838,0,1.664-.03,2.477-.1s1.579-.134,2.289-.2c-.067.267-.128.583-.188.947s-.127.747-.2,1.148-.152.783-.237,1.16a10.054,10.054,0,0,1-.273.984c-.279-.03-.546-.061-.8-.073s-.492-.043-.723-.073c-.067.929-.115,1.815-.152,2.653s-.055,1.651-.061,2.441-.006,1.566,0,2.325.018,1.536.036,2.313c.461-.03.911-.073,1.342-.109s.844-.079,1.245-.109c-.067.267-.127.583-.188.947s-.128.747-.2,1.148-.152.783-.237,1.16a9.613,9.613,0,0,1-.273.984c-.783-.1-1.494-.176-2.143-.225s-1.287-.073-1.931-.073-1.3.024-1.979.073-1.427.128-2.24.225c0-.249,0-.571-.012-.971s-.018-.814-.036-1.245-.036-.856-.061-1.269-.055-.771-.085-1.069Z" transform="translate(-199.651 -114.044)" fill="#0d61d3"/>
      <path id="Path_2187" data-name="Path 2187" d="M286.92,114.04a7.886,7.886,0,0,0,1.815.389c.783.091,1.639.152,2.574.188s1.925.049,2.963.049,2.034-.018,2.987-.049,1.828-.073,2.611-.109,1.421-.085,1.906-.14c-.067.267-.127.583-.188.947s-.127.747-.2,1.148-.152.783-.237,1.16a10.09,10.09,0,0,1-.273.984c-.516-.067-1.129-.115-1.84-.152s-1.488-.067-2.313-.1q-.273,1.913-.4,3.582t-.164,3.3c-.024,1.087-.018,2.186.024,3.3s.1,2.3.164,3.558l-5.325.1q.246-2.04.376-3.7c.085-1.105.14-2.18.164-3.236s.03-2.131.012-3.224-.042-2.331-.073-3.71c-.862.03-1.67.073-2.429.109s-1.409.1-1.955.164c0-.249,0-.571-.012-.971s-.018-.814-.036-1.245-.036-.856-.061-1.269-.055-.771-.085-1.069Z" transform="translate(-206.502 -114.04)" fill="#0d61d3"/>
      <path id="Path_2188" data-name="Path 2188" d="M324.76,123.333a14.1,14.1,0,0,1,.534-4.147,7.768,7.768,0,0,1,1.482-2.823,5.762,5.762,0,0,1,2.2-1.6,7.189,7.189,0,0,1,2.726-.51,7.382,7.382,0,0,1,2.75.51,5.79,5.79,0,0,1,2.24,1.6,7.8,7.8,0,0,1,1.506,2.823,13.872,13.872,0,0,1,.546,4.147,14.042,14.042,0,0,1-.546,4.171,7.8,7.8,0,0,1-1.506,2.823,5.635,5.635,0,0,1-2.24,1.591,7.5,7.5,0,0,1-2.75.5,7.3,7.3,0,0,1-2.726-.5,5.667,5.667,0,0,1-2.2-1.591,7.768,7.768,0,0,1-1.482-2.823A14.187,14.187,0,0,1,324.76,123.333Zm4.73,0a15.026,15.026,0,0,0,.152,2.392,4.841,4.841,0,0,0,.425,1.445,1.5,1.5,0,0,0,.7.71,2.255,2.255,0,0,0,.947.188,2.293,2.293,0,0,0,.959-.188,1.547,1.547,0,0,0,.7-.71,4.75,4.75,0,0,0,.437-1.445,15.721,15.721,0,0,0,.152-2.392,14.687,14.687,0,0,0-.152-2.368,4.484,4.484,0,0,0-.437-1.445,1.643,1.643,0,0,0-.7-.723,2.368,2.368,0,0,0-1.906,0,1.582,1.582,0,0,0-.7.723,4.968,4.968,0,0,0-.425,1.445A15.541,15.541,0,0,0,329.49,123.333Z" transform="translate(-221.367 -114.122)" fill="#0d61d3"/>
      <path id="Path_2189" data-name="Path 2189" d="M355.343,114.246q.574,1.867.984,3.437c.273,1.044.54,2.064.807,3.048s.559,1.979.886,2.975.735,2.064,1.233,3.212q.574-1.366,1.02-2.8t.874-2.975c.279-1.026.565-2.113.844-3.248s.6-2.35.947-3.649l5.2,1.172q-1.74,3.907-3.188,8.063t-2.914,8.786l-5.3-.1c-.565-1.512-1.105-3.018-1.633-4.529s-1.044-2.981-1.567-4.408-1.062-2.8-1.621-4.123a40.288,40.288,0,0,0-1.779-3.7l5.2-1.172Z" transform="translate(-231.337 -114.119)" fill="#0d61d3"/>
      <path id="Path_2190" data-name="Path 2190" d="M388.668,128.7c.3-.018.741-.061,1.318-.127a18.262,18.262,0,0,0,1.828-.31c.638-.14,1.263-.31,1.87-.5a5.35,5.35,0,0,0,1.481-.686c-.1.334-.194.668-.285,1.008s-.188.7-.3,1.081-.237.789-.383,1.22-.322.9-.522,1.421a30.187,30.187,0,0,1-3.9.31,29.323,29.323,0,0,1-3.819-.164,6.311,6.311,0,0,1-1.718-.413,2.568,2.568,0,0,1-1.056-.783,3.2,3.2,0,0,1-.559-1.233,11.3,11.3,0,0,1-.249-1.779c-.085-1.044-.128-2.058-.128-3.036s.03-1.985.085-3.024.146-2.131.261-3.285.267-2.417.449-3.795a21.3,21.3,0,0,0,2.574.176c1.038.018,2.119.006,3.248-.024s2.24-.1,3.333-.213,2.058-.237,2.89-.389a9.5,9.5,0,0,0-.176,1.056c-.049.425-.1.856-.14,1.305s-.073.874-.1,1.281-.049.735-.061.984a11.5,11.5,0,0,0-1.342-.176c-.577-.049-1.214-.085-1.894-.109s-1.354-.03-2.028-.024-1.257.03-1.755.061c-.1.534-.188,1.032-.261,1.506s-.14.923-.188,1.354c.729.036,1.481.049,2.253.049s1.512-.018,2.216-.049,1.348-.085,1.931-.164a10.024,10.024,0,0,0,1.4-.261c-.018.267-.036.589-.061.971s-.055.777-.085,1.184-.073.808-.109,1.2-.085.729-.14,1.008c-.364-.049-.832-.1-1.409-.14s-1.2-.079-1.894-.109-1.4-.061-2.143-.073-1.463-.018-2.18,0c0,.6.024,1.245.073,1.943a2.364,2.364,0,0,0,.376,1.445,1.649,1.649,0,0,0,1.293.3Z" transform="translate(-243.951 -114.087)" fill="#0d61d3"/>
      <path id="Path_2191" data-name="Path 2191" d="M411.163,114.675c.565-.018,1.172-.03,1.828-.036s1.421,0,2.3.036a7.734,7.734,0,0,1,2.076.358,4.335,4.335,0,0,1,1.67.984,4.455,4.455,0,0,1,1.105,1.743,7.639,7.639,0,0,1,.4,2.611,5.841,5.841,0,0,1-.534,2.55,4.66,4.66,0,0,1-1.384,1.658c.334,1.148.686,2.3,1.069,3.461s.82,2.35,1.318,3.558l-4.657,1.172a32.3,32.3,0,0,0-.534-3.582c-.243-1.148-.5-2.265-.783-3.364-.71.115-1.427.2-2.143.261s-1.427.085-2.143.085c-.018,1.026-.012,2.04.012,3.036s.055,2.016.085,3.06l-4.857.024c.134-1.014.255-1.961.358-2.848s.2-1.761.285-2.617.146-1.718.188-2.586.061-1.791.061-2.763-.036-2.01-.1-3.127-.158-2.338-.273-3.685h4.633Zm-.1,3.91c-.1,1.463-.176,2.835-.225,4.135a11.526,11.526,0,0,0,1.542.049,11.071,11.071,0,0,0,1.718-.2,2.614,2.614,0,0,0,1.518-.71,2.247,2.247,0,0,0,.4-1.6,2.756,2.756,0,0,0-.188-.971,1.371,1.371,0,0,0-.449-.583,1.74,1.74,0,0,0-.7-.3,5.139,5.139,0,0,0-.935-.109,7.764,7.764,0,0,0-1.409.036,8.683,8.683,0,0,0-1.281.261Z" transform="translate(-253.277 -114.274)" fill="#0d61d3"/>
    </g>
    <g id="Group_274" data-name="Group 274" transform="translate(94.389 95.5)">
      <path id="Path_2192" data-name="Path 2192" d="M155.46,164.27a6.415,6.415,0,0,0,1.475.346c.055-.516.1-1.008.14-1.494s.061-.978.073-1.481.006-1.044-.006-1.609-.049-1.184-.091-1.858c-.461.03-.947.085-1.457.146,0-.164,0-.376-.006-.638s-.012-.534-.024-.82-.024-.565-.043-.838-.036-.51-.055-.7a5.82,5.82,0,0,0,1.433.328,15.355,15.355,0,0,0,1.609.079c.552,0,1.093-.024,1.633-.067s1.038-.085,1.506-.134c-.042.176-.085.383-.121.625s-.085.492-.134.753-.1.516-.158.765a5.723,5.723,0,0,1-.182.65c-.188-.024-.358-.036-.522-.049s-.322-.024-.474-.049c-.043.613-.079,1.2-.1,1.749s-.036,1.087-.042,1.609v1.53c0,.5.012,1.014.024,1.524l.886-.073c.285-.024.559-.055.82-.073-.042.176-.085.382-.121.625s-.085.492-.134.753-.1.516-.158.765a5.386,5.386,0,0,1-.182.65c-.516-.067-.984-.115-1.409-.146s-.85-.049-1.269-.049-.856.018-1.305.049-.941.079-1.475.146c0-.164,0-.376-.006-.638s-.012-.534-.024-.82-.024-.565-.042-.838-.036-.51-.055-.7Z" transform="translate(-155.46 -155.32)" fill="#0d61d3"/>
      <path id="Path_2193" data-name="Path 2193" d="M177.7,155.734c-.194,1.135-.352,2.192-.461,3.169s-.182,1.931-.213,2.854-.036,1.84-.018,2.744.061,1.858.115,2.854l-3.26.067c-.5-1.19-1.014-2.344-1.524-3.449s-1.044-2.192-1.591-3.254q-.082,1.74-.073,3.333c.006,1.063.03,2.155.073,3.273l-3.279.018q.128-1,.237-1.876c.073-.583.134-1.16.188-1.724s.1-1.129.121-1.706.043-1.178.043-1.822-.024-1.324-.067-2.058-.1-1.542-.182-2.429h3.26l.03-.018c.109.3.273.7.486,1.214s.461,1.081.735,1.706.583,1.275.911,1.949.656,1.33.984,1.949c.012-.492.012-.99.006-1.494s-.012-1.026-.024-1.573-.024-1.129-.043-1.749-.03-1.281-.043-1.991h3.576Z" transform="translate(-160.178 -155.473)" fill="#0d61d3"/>
      <path id="Path_2194" data-name="Path 2194" d="M185.78,167.357c.109-.862.194-1.73.261-2.6s.1-1.767.109-2.7-.012-1.9-.055-2.92-.121-2.1-.231-3.26h1.591c.7-.079,1.372-.128,2.016-.158a10.244,10.244,0,0,1,1.809.079,5.56,5.56,0,0,1,1.542.449,3.289,3.289,0,0,1,1.2.978,4.667,4.667,0,0,1,.771,1.658,9.563,9.563,0,0,1,.273,2.465,8.686,8.686,0,0,1-.249,2.222,5.932,5.932,0,0,1-.686,1.664,4.135,4.135,0,0,1-1.063,1.154,4.831,4.831,0,0,1-1.378.7,6.309,6.309,0,0,1-1.785.243c-.631,0-1.293-.012-1.985-.03l-2.131.049Zm3.473-9.3q-.182,1.685-.261,3.437t0,3.333a3.59,3.59,0,0,0,.723,0,2.577,2.577,0,0,0,.638-.146,1.781,1.781,0,0,0,1.1-1.063,5.793,5.793,0,0,0,.31-2.083,6.754,6.754,0,0,0-.194-1.761,2.872,2.872,0,0,0-.534-1.093,1.732,1.732,0,0,0-.8-.534A2.5,2.5,0,0,0,189.253,158.062Z" transform="translate(-167.371 -155.475)" fill="#0d61d3"/>
      <path id="Path_2195" data-name="Path 2195" d="M202.85,164.27a6.416,6.416,0,0,0,1.475.346c.055-.516.1-1.008.14-1.494s.061-.978.073-1.481.006-1.044-.006-1.609-.049-1.184-.091-1.858c-.461.03-.947.085-1.457.146,0-.164,0-.376-.006-.638s-.012-.534-.024-.82-.024-.565-.042-.838-.036-.51-.055-.7a5.819,5.819,0,0,0,1.433.328,15.354,15.354,0,0,0,1.609.079c.553,0,1.093-.024,1.633-.067s1.038-.085,1.506-.134c-.043.176-.085.383-.121.625s-.085.492-.134.753-.1.516-.158.765a5.727,5.727,0,0,1-.182.65c-.188-.024-.358-.036-.522-.049s-.322-.024-.474-.049c-.042.613-.079,1.2-.1,1.749s-.036,1.087-.042,1.609v1.53c0,.5.012,1.014.024,1.524l.886-.073c.285-.024.559-.055.82-.073-.043.176-.085.382-.121.625s-.085.492-.134.753-.1.516-.158.765a5.39,5.39,0,0,1-.182.65c-.516-.067-.984-.115-1.409-.146s-.85-.049-1.269-.049-.856.018-1.305.049-.941.079-1.475.146c0-.164,0-.376-.006-.638s-.012-.534-.024-.82-.024-.565-.043-.838-.036-.51-.055-.7Z" transform="translate(-174.077 -155.32)" fill="#0d61d3"/>
      <path id="Path_2196" data-name="Path 2196" d="M214.24,166.815a25.949,25.949,0,0,0,1.172-2.435c.364-.868.723-1.773,1.063-2.714s.686-1.906,1.032-2.9.7-1.985,1.075-2.993l3.491-.067q.965,3.051,1.919,5.786t2.1,5.313l-3.424.771c-.14-.522-.273-1.02-.383-1.481s-.231-.923-.352-1.366a14.088,14.088,0,0,0-1.736-.085,14.252,14.252,0,0,0-1.736.146c-.121.425-.243.868-.37,1.318s-.267.941-.419,1.469l-3.424-.771Zm6-7.571c-.219.522-.413,1.014-.583,1.469s-.322.9-.449,1.354c.328.055.668.1,1.026.146s.7.079,1.038.1q-.228-.82-.474-1.566C220.633,160.245,220.445,159.748,220.239,159.244Z" transform="translate(-178.551 -155.473)" fill="#0d61d3"/>
      <path id="Path_2197" data-name="Path 2197" d="M245.79,155.734c.37-.012.771-.018,1.2-.024s.935,0,1.518.024a5.352,5.352,0,0,1,1.366.237,2.873,2.873,0,0,1,1.1.65,3.054,3.054,0,0,1,.729,1.148,4.919,4.919,0,0,1,.261,1.718,3.724,3.724,0,0,1-.279,1.53,3.042,3.042,0,0,1-.753,1.05,3.454,3.454,0,0,1-1.129.656,7.091,7.091,0,0,1-1.445.352c-.425.067-.856.115-1.293.158s-.868.061-1.293.073c-.012.68-.006,1.342.006,2s.036,1.33.055,2.016l-3.443.018q.127-1,.237-1.876c.073-.583.134-1.16.188-1.724s.1-1.129.121-1.706.043-1.178.043-1.821-.024-1.324-.067-2.058-.1-1.542-.182-2.429h3.048Zm.182,2.508q-.1,1.475-.146,2.805a6.6,6.6,0,0,0,1.9-.115,1.721,1.721,0,0,0,1-.468,1.471,1.471,0,0,0,.261-1.056,1.8,1.8,0,0,0-.121-.638.906.906,0,0,0-.3-.383,1.178,1.178,0,0,0-.461-.194,4.253,4.253,0,0,0-.613-.073,6.537,6.537,0,0,0-1.524.134Z" transform="translate(-189.61 -155.473)" fill="#0d61d3"/>
      <path id="Path_2198" data-name="Path 2198" d="M263.621,161.75a1.825,1.825,0,0,0-.049.273c-.012.091-.024.182-.03.273a3.968,3.968,0,0,1,.814-.37,3.12,3.12,0,0,1,.941-.14,4,4,0,0,1,.826.091,2.912,2.912,0,0,1,.862.334,3.48,3.48,0,0,1,.826.68,4.586,4.586,0,0,1,.729,1.105l-2.2,1.882a2.277,2.277,0,0,0-.613-1.075,1.332,1.332,0,0,0-.892-.255,2.494,2.494,0,0,0-1.475.51c0,.789.024,1.566.079,2.338s.109,1.524.164,2.253l-3.443.079a35.474,35.474,0,0,0,.237-3.989c0-1.372-.049-2.7-.158-3.989h3.376Z" transform="translate(-196.59 -157.846)" fill="#0d61d3"/>
      <path id="Path_2199" data-name="Path 2199" d="M275.37,157.182a1.421,1.421,0,0,1,.474-1.069,1.911,1.911,0,0,1,1.36-.443,1.938,1.938,0,0,1,1.366.443,1.4,1.4,0,0,1,.486,1.069,1.424,1.424,0,0,1-.486,1.075,2.292,2.292,0,0,1-2.726,0A1.424,1.424,0,0,1,275.37,157.182Zm3.607,2.477c-.134.777-.225,1.488-.285,2.137s-.1,1.275-.109,1.876,0,1.2.024,1.785.067,1.22.121,1.882l-3.345.067c.079-.808.14-1.518.188-2.125s.079-1.19.091-1.755,0-1.148-.024-1.749-.079-1.311-.158-2.131h3.491Z" transform="translate(-202.566 -155.458)" fill="#0d61d3"/>
      <path id="Path_2200" data-name="Path 2200" d="M286,161.34c.109.492.231.959.358,1.39s.273.862.419,1.281.3.832.474,1.257.352.862.546,1.318c.164-.48.322-.935.467-1.366s.279-.856.4-1.269.237-.832.352-1.257.219-.874.322-1.354l3.212.54q-.474.883-.874,1.8c-.267.613-.522,1.239-.771,1.876s-.492,1.293-.741,1.961-.5,1.354-.759,2.064l-3.2-.049c-.3-.7-.6-1.4-.862-2.083s-.534-1.36-.8-2.01-.546-1.275-.826-1.876a14.423,14.423,0,0,0-.935-1.688l3.212-.54Z" transform="translate(-205.477 -157.685)" fill="#0d61d3"/>
      <path id="Path_2201" data-name="Path 2201" d="M300.573,162.312a4.037,4.037,0,0,0,.814-.134c.3-.079.638-.164,1.014-.255s.8-.17,1.257-.237a9.251,9.251,0,0,1,1.524-.079,5.381,5.381,0,0,1,1.311.188,3.285,3.285,0,0,1,1.087.522,2.417,2.417,0,0,1,.729.929,3.15,3.15,0,0,1,.243,1.39c-.03.959-.024,1.858.018,2.678a21.289,21.289,0,0,0,.249,2.35h-3.843c-.364,0-.644,0-.826-.006s-.346-.006-.474-.006a11.087,11.087,0,0,1-1.433-.121,3.817,3.817,0,0,1-1.123-.346,1.757,1.757,0,0,1-1.02-1.712,2.4,2.4,0,0,1,.249-1.22,2.083,2.083,0,0,1,.729-.777,3.277,3.277,0,0,1,1.105-.425,7.408,7.408,0,0,1,1.36-.146c.273-.012.51-.012.71-.006s.389.018.559.03.328.03.474.049.3.03.467.043v-.3a.986.986,0,0,0-.425-.868,2.008,2.008,0,0,0-1.2-.212,7.543,7.543,0,0,0-1.633.3,2.86,2.86,0,0,0-1.366.941l-.559-2.574Zm3.491,5.6a7.918,7.918,0,0,0,1.524-.049c.024-.188.036-.37.049-.546s.024-.352.049-.516q-.373-.064-.765-.109a3.53,3.53,0,0,0-.759-.006,1.964,1.964,0,0,0-.662.158.446.446,0,0,0-.273.449c0,.37.279.577.838.625Z" transform="translate(-212.28 -157.789)" fill="#0d61d3"/>
      <path id="Path_2202" data-name="Path 2202" d="M324.173,164.711a8.67,8.67,0,0,1-.686,1.318,3.452,3.452,0,0,1-.729.814,2.5,2.5,0,0,1-.844.419,3.774,3.774,0,0,1-1.014.121,5.174,5.174,0,0,1-1.694-.237,2.473,2.473,0,0,1-1.075-.686,2.4,2.4,0,0,1-.534-1.075,5.016,5.016,0,0,1-.091-1.378c.03-.461.049-1.026.049-1.706q-.555.036-1.056.073c-.334.024-.65.055-.941.091,0-.164,0-.358-.006-.589s-.012-.461-.024-.7-.024-.48-.043-.723-.036-.461-.055-.656a4.376,4.376,0,0,0,.917.231c.358.055.753.1,1.178.134-.012-.48-.03-.953-.049-1.421s-.049-.893-.073-1.281-.055-.729-.091-1.014a5.5,5.5,0,0,0-.1-.631l3.424.067a4.826,4.826,0,0,0-.1.613c-.03.285-.061.631-.091,1.014s-.055.814-.079,1.281-.049.935-.055,1.421c.686-.024,1.336-.049,1.937-.091s1.1-.073,1.494-.109c-.085.352-.17.753-.255,1.214a7.245,7.245,0,0,1-.334,1.245c-.407-.055-.85-.1-1.342-.121s-1-.049-1.524-.055v.546a4.271,4.271,0,0,0,.018.5,7.034,7.034,0,0,0,.079.953,1.792,1.792,0,0,0,.164.54.516.516,0,0,0,.213.237.535.535,0,0,0,.231.055.393.393,0,0,0,.225-.067.538.538,0,0,0,.164-.237,2.729,2.729,0,0,0,.134-.461c.036-.188.085-.437.14-.747l2.544,1.1Z" transform="translate(-218.303 -155.512)" fill="#0d61d3"/>
      <path id="Path_2203" data-name="Path 2203" d="M339.223,169.452a13.671,13.671,0,0,1-1.809.255,15.879,15.879,0,0,1-1.749.042,4.656,4.656,0,0,1-3.163-1.05,3.813,3.813,0,0,1-1-2.805,4.949,4.949,0,0,1,.358-1.991,3.587,3.587,0,0,1,2.3-2.052,5.3,5.3,0,0,1,1.542-.231,5.025,5.025,0,0,1,1.718.285,3.225,3.225,0,0,1,1.336.911,4.033,4.033,0,0,1,.826,1.609,7.587,7.587,0,0,1,.212,2.362l-5.331.018a.727.727,0,0,0,.249.437,1.536,1.536,0,0,0,.449.273,2.617,2.617,0,0,0,.516.146,2.717,2.717,0,0,0,.443.049c.219,0,.449-.012.7-.03a6.128,6.128,0,0,0,.735-.109,6.4,6.4,0,0,0,.71-.182,5.656,5.656,0,0,0,.625-.237l.328,2.313Zm-3.443-5.525a1.2,1.2,0,0,0-.965.328,1.619,1.619,0,0,0-.358.8q.392.018.71.018c.212,0,.419,0,.625-.006s.407-.012.607-.024.431-.024.68-.03a1.213,1.213,0,0,0-.328-.777,1.3,1.3,0,0,0-.965-.3Z" transform="translate(-224.616 -157.795)" fill="#0d61d3"/>
      <path id="Path_2204" data-name="Path 2204" d="M359.064,165.2c.194,0,.486-.018.868-.055s.789-.091,1.22-.164.85-.158,1.257-.261a3.815,3.815,0,0,0,.953-.352A12.8,12.8,0,0,0,363,165.62a8.33,8.33,0,0,1-.577,1.566q-.574.064-1.257.109c-.455.024-.917.042-1.384.049s-.929,0-1.378-.006-.856-.03-1.226-.067a4.383,4.383,0,0,1-1.075-.219,1.677,1.677,0,0,1-.662-.419,1.564,1.564,0,0,1-.358-.656,4.63,4.63,0,0,1-.164-.935c-.043-.546-.067-1.19-.073-1.937s.012-1.524.049-2.344.1-1.645.17-2.477.176-1.609.3-2.344c.358.024.692.03.99.03s.6-.006.886-.024.583-.042.874-.073.625-.073.984-.115c-.164.656-.3,1.36-.425,2.113s-.225,1.512-.322,2.271-.164,1.5-.219,2.216-.091,1.36-.115,1.925c-.024.395.042.65.194.771a1.3,1.3,0,0,0,.85.146Z" transform="translate(-233.789 -155.493)" fill="#0d61d3"/>
      <path id="Path_2205" data-name="Path 2205" d="M370.27,157.182a1.42,1.42,0,0,1,.474-1.069,1.911,1.911,0,0,1,1.36-.443,1.937,1.937,0,0,1,1.366.443,1.4,1.4,0,0,1,.486,1.069,1.424,1.424,0,0,1-.486,1.075,2.292,2.292,0,0,1-2.726,0A1.424,1.424,0,0,1,370.27,157.182Zm3.607,2.477c-.134.777-.225,1.488-.285,2.137s-.1,1.275-.109,1.876,0,1.2.024,1.785.067,1.22.121,1.882l-3.345.067c.079-.808.14-1.518.188-2.125s.079-1.19.091-1.755,0-1.148-.024-1.749-.079-1.311-.158-2.131h3.491Z" transform="translate(-239.846 -155.458)" fill="#0d61d3"/>
      <path id="Path_2206" data-name="Path 2206" d="M381.772,161.75a1.01,1.01,0,0,0-.043.212.7.7,0,0,1-.043.213,3.052,3.052,0,0,1,.71-.285,3.159,3.159,0,0,1,.862-.109,2.566,2.566,0,0,1,1.245.3,2.5,2.5,0,0,1,.935.886,3.692,3.692,0,0,1,1.008-.838,2.923,2.923,0,0,1,1.481-.346,2.66,2.66,0,0,1,1.1.231,2.517,2.517,0,0,1,.886.68,2.924,2.924,0,0,1,.571,1.141,5.406,5.406,0,0,1,.182,1.609c0,.249,0,.546-.006.893s0,.71.006,1.1.03.783.055,1.19.067.8.121,1.178l-3.182-.067a2.691,2.691,0,0,0,.182-.71c.043-.31.073-.65.091-1.014s.024-.729.018-1.093-.006-.674-.006-.935a1.618,1.618,0,0,0-.322-1.141,1.028,1.028,0,0,0-.729-.285,1.286,1.286,0,0,0-.917.407,1.484,1.484,0,0,1,.018.231v.249c0,.249,0,.546-.006.893s0,.71.006,1.1.03.783.055,1.19.067.8.121,1.178l-3.182-.067a2.477,2.477,0,0,0,.182-.71c.042-.31.073-.65.091-1.014s.024-.729.018-1.093-.006-.674-.006-.935a1.552,1.552,0,0,0-.346-1.141,1.346,1.346,0,0,0-.9-.285.894.894,0,0,0-.522.182c-.012.844.012,1.676.067,2.5s.115,1.633.182,2.417l-3.194.079a35.466,35.466,0,0,0,.237-3.989c0-1.372-.049-2.7-.158-3.989h3.133Z" transform="translate(-243.103 -157.846)" fill="#0d61d3"/>
      <path id="Path_2207" data-name="Path 2207" d="M400.78,157.182a1.421,1.421,0,0,1,.474-1.069,1.912,1.912,0,0,1,1.36-.443,1.938,1.938,0,0,1,1.366.443,1.4,1.4,0,0,1,.486,1.069,1.424,1.424,0,0,1-.486,1.075,2.292,2.292,0,0,1-2.726,0A1.424,1.424,0,0,1,400.78,157.182Zm3.607,2.477c-.134.777-.225,1.488-.285,2.137s-.1,1.275-.109,1.876,0,1.2.024,1.785.067,1.22.121,1.882l-3.345.067c.079-.808.14-1.518.188-2.125s.079-1.19.091-1.755,0-1.148-.024-1.749-.079-1.311-.158-2.131h3.491Z" transform="translate(-251.832 -155.458)" fill="#0d61d3"/>
      <path id="Path_2208" data-name="Path 2208" d="M416.913,164.711a8.671,8.671,0,0,1-.686,1.318,3.455,3.455,0,0,1-.729.814,2.5,2.5,0,0,1-.844.419,3.775,3.775,0,0,1-1.014.121,5.173,5.173,0,0,1-1.694-.237,2.473,2.473,0,0,1-1.075-.686,2.4,2.4,0,0,1-.534-1.075,5.018,5.018,0,0,1-.091-1.378c.03-.461.049-1.026.049-1.706q-.556.036-1.056.073c-.334.024-.65.055-.941.091,0-.164,0-.358-.006-.589s-.012-.461-.024-.7-.024-.48-.043-.723-.036-.461-.055-.656a4.376,4.376,0,0,0,.917.231c.358.055.753.1,1.178.134-.012-.48-.03-.953-.049-1.421s-.049-.893-.073-1.281-.055-.729-.091-1.014a5.5,5.5,0,0,0-.1-.631l3.424.067a4.812,4.812,0,0,0-.1.613c-.03.285-.061.631-.091,1.014s-.055.814-.079,1.281-.049.935-.055,1.421c.686-.024,1.336-.049,1.937-.091s1.1-.073,1.494-.109c-.085.352-.17.753-.255,1.214a7.257,7.257,0,0,1-.334,1.245c-.407-.055-.85-.1-1.342-.121s-1-.049-1.524-.055v.546a4.271,4.271,0,0,0,.018.5,7.034,7.034,0,0,0,.079.953,1.792,1.792,0,0,0,.164.54.516.516,0,0,0,.213.237.535.535,0,0,0,.231.055.393.393,0,0,0,.225-.067.538.538,0,0,0,.164-.237,2.741,2.741,0,0,0,.134-.461c.036-.188.085-.437.14-.747l2.544,1.1Z" transform="translate(-254.735 -155.512)" fill="#0d61d3"/>
      <path id="Path_2209" data-name="Path 2209" d="M431.963,169.452a13.672,13.672,0,0,1-1.809.255,15.88,15.88,0,0,1-1.749.042,4.656,4.656,0,0,1-3.163-1.05,3.814,3.814,0,0,1-1-2.805,4.949,4.949,0,0,1,.358-1.991,3.587,3.587,0,0,1,2.3-2.052,5.3,5.3,0,0,1,1.542-.231,5.025,5.025,0,0,1,1.718.285,3.225,3.225,0,0,1,1.336.911,4.033,4.033,0,0,1,.826,1.609,7.587,7.587,0,0,1,.212,2.362l-5.331.018a.727.727,0,0,0,.249.437,1.538,1.538,0,0,0,.449.273,2.616,2.616,0,0,0,.516.146,2.716,2.716,0,0,0,.443.049c.219,0,.449-.012.7-.03a6.127,6.127,0,0,0,.735-.109,6.4,6.4,0,0,0,.71-.182,5.654,5.654,0,0,0,.625-.237l.328,2.313Zm-3.443-5.525a1.2,1.2,0,0,0-.965.328,1.62,1.62,0,0,0-.358.8q.392.018.71.018c.212,0,.419,0,.625-.006s.407-.012.607-.024.431-.024.68-.03a1.213,1.213,0,0,0-.328-.777,1.3,1.3,0,0,0-.965-.3Z" transform="translate(-261.048 -157.795)" fill="#0d61d3"/>
      <path id="Path_2210" data-name="Path 2210" d="M449.335,156.08c-.152.886-.279,1.834-.376,2.841s-.164,2.022-.194,3.036-.03,2,0,2.951a21.209,21.209,0,0,0,.231,2.6l-1.445-.049H447c-.194,0-.437,0-.729-.006s-.656-.018-1.087-.042-.971-.049-1.615-.079a5.009,5.009,0,0,1-1.451-.3,3.187,3.187,0,0,1-1.141-.71,3.325,3.325,0,0,1-.747-1.154,4.28,4.28,0,0,1-.273-1.591,5.175,5.175,0,0,1,.261-1.749,3.288,3.288,0,0,1,.729-1.2,2.921,2.921,0,0,1,1.1-.7,4.474,4.474,0,0,1,1.366-.261,9.107,9.107,0,0,1,1.39.03c.383.042.735.085,1.063.115-.043-1.123-.127-2.368-.249-3.722h3.7ZM444.2,165.1a8.1,8.1,0,0,0,1.573.194c.085-1.008.134-2.022.146-3.048a7.109,7.109,0,0,0-.7-.14,7.731,7.731,0,0,0-.8-.073,1.392,1.392,0,0,0-1.05.346,1.468,1.468,0,0,0-.443,1.117,1.774,1.774,0,0,0,.261,1.081,1.484,1.484,0,0,0,1,.522Z" transform="translate(-267.223 -155.619)" fill="#0d61d3"/>
    </g>
    <path id="Path_2211" data-name="Path 2211" d="M166.316,14.681c1.433-.049,2.993-.085,4.669-.115s3.637.012,5.883.115a18.442,18.442,0,0,1,5.446,1.1,11.559,11.559,0,0,1,4.469,3,14.341,14.341,0,0,1,2.993,5.2,24.072,24.072,0,0,1,1.075,7.711,18.709,18.709,0,0,1-1.512,7.711,13.543,13.543,0,0,1-4,5.052q1.275,5.091,2.89,10.48T191.792,65.8L180.5,68.985q-.537-5.464-1.548-10.826T176.8,47.947a.978.978,0,0,0-.267.036,1.046,1.046,0,0,1-.267.036,56.646,56.646,0,0,1-5.817.759q-2.924.228-5.817.231-.064,9.271.2,18.609L152.6,67.7q1.548-12.987,1.985-26.047a243.963,243.963,0,0,0-.638-26.964h12.368Zm7.529,9.417a25.476,25.476,0,0,0-4.438.079,26.714,26.714,0,0,0-3.831.686q-.273,3.8-.437,7.6t-.3,7.668a36.25,36.25,0,0,0,4.736.152,25.971,25.971,0,0,0,5.143-.686,6.519,6.519,0,0,0,4.165-2.508q1.348-1.894,1.208-5.774-.273-6.912-6.248-7.213Z" transform="translate(-59.948 -4.523)" fill="#fff"/>
  </g>
</svg>
